<svg xmlns="http://www.w3.org/2000/svg" viewBox="0 0 102.74 39.58"><defs><style>.cls-1{fill:#eb1616;}</style></defs><g id="Capa_2" data-name="Capa 2"><g id="Capa_1-2" data-name="Capa 1"><polygon class="cls-1" points="1.52 12.48 10.91 12.48 14.84 2.78 19.57 2.78 20.42 8.42 23.39 2.78 27.84 2.78 28.12 16.26 23.56 16.26 23.56 9.58 20.17 16.26 17.38 16.26 16.46 9.51 13.99 16.26 0 16.26 1.52 12.48"/><path class="cls-1" d="M44.93,10.07c-1.08,3.73-5.41,6.51-9.67,6.22S28.42,12.74,29.5,9s5.41-6.5,9.67-6.21S46,6.35,44.93,10.07ZM38,7a3.66,3.66,0,0,0-3.69,2.37,2.18,2.18,0,0,0,2.2,2.77,3.66,3.66,0,0,0,3.69-2.37A2.18,2.18,0,0,0,38,7Z"/><path class="cls-1" d="M72.73,10.07c-1.09,3.73-5.42,6.51-9.68,6.22S56.21,12.74,57.29,9,62.7,2.52,67,2.81,73.81,6.35,72.73,10.07ZM65.76,7a3.68,3.68,0,0,0-3.7,2.37,2.18,2.18,0,0,0,2.2,2.77A3.66,3.66,0,0,0,68,9.75,2.17,2.17,0,0,0,65.76,7Z"/><polygon class="cls-1" points="46.94 2.92 57.24 2.92 56.49 6.49 53.64 6.49 51.96 16.01 47.31 16.01 49.05 6.49 46.19 6.49 46.94 2.92"/><polygon class="cls-1" points="61.57 19.34 76.54 19.34 75.89 22.45 67.42 22.45 65.95 30.76 61.89 30.76 63.41 22.45 60.92 22.45 61.57 19.34"/><polygon class="cls-1" points="16.23 22.09 16.73 19.42 9.16 19.42 6.86 30.4 14.43 30.4 14.93 27.73 11.17 27.73 11.51 26.18 15.19 26.18 15.68 23.52 12.09 23.52 12.4 22.09 16.23 22.09"/><polygon class="cls-1" points="48.74 22.09 49.23 19.42 41.66 19.42 39.37 30.4 46.94 30.4 47.44 27.73 43.67 27.73 44.02 26.18 47.7 26.18 48.19 23.52 44.6 23.52 44.91 22.09 48.74 22.09"/><polygon class="cls-1" points="17.9 19.36 22 19.36 23.16 21.76 25.27 19.36 29.03 19.36 24.48 24.94 27.29 30.57 23.12 30.57 22.04 28.21 20.01 30.57 16.29 30.57 20.76 24.94 17.9 19.36"/><path class="cls-1" d="M32.75,30.53H29l2.15-11h5.13c.43,0,3.68.31,3.22,3.44-.41,2.86-3.84,3.31-6,3.31Zm1.41-8.61-.41,1.78s1.86.37,2.1-.83S34.16,21.92,34.16,21.92Z"/><path class="cls-1" d="M59.69,23c.46-3.13-2.79-3.44-3.23-3.44H51.34l-2.15,11H53L53.57,27l1.35,3.4h4.14l-1.83-4.68A3.45,3.45,0,0,0,59.69,23Zm-5.33-1s1.94-.24,1.69.95-2.11.83-2.11.83Z"/><path class="cls-1" d="M88.54,1.84C102.74,9.5,102.74,20,102.74,20,79.6,27.05,70.5,39.58,70.5,39.58c8-16.84,24.42-22.1,24.42-22.1.24-7.5-5.67-13.09-5.67-13.09S86.54,2.23,83.67,0A30.49,30.49,0,0,1,88.54,1.84Z"/><path class="cls-1" d="M91,15.2a1.56,1.56,0,1,1-3.11,0,1.56,1.56,0,0,1,3.11,0Z"/></g></g></svg>